# xmcd
#
# Track frame offsets:
#	150
#	27783
#	47396
#	71739
#	96368
#	124219
#	141527
#	165069
#	180905
#	209132
#	230817
#	253299
#	288322
#	301561
#
# Disc length: 4317 seconds
#
# Revision: 1
# Processed by: cddbd v1.5.1PL2 Copyright (c) Steve Scherf et al.
# Submitted via: audiograbber 1.83.01
#
DISCID=c710db0e
DTITLE=Gável Testvérek - Végtelen
DYEAR=2004
DGENRE=Christian Rock
TTITLE0=Istenarc
TTITLE1=Valaki rám néz...
TTITLE2=Maradj még!
TTITLE3=Tamás
TTITLE4=Végtelen
TTITLE5=Út, igazság, élet
TTITLE6=Utam a fény
TTITLE7=Téged választottalak
TTITLE8=Bízom benned
TTITLE9=Jöjj hozzám!
TTITLE10=Mi Atyánk
TTITLE11=Jövõd tengerén
TTITLE12=Táncra perdül a lelkem
TTITLE13=Hála
EXTD=
EXTT0=
EXTT1=
EXTT2=
EXTT3=
EXTT4=
EXTT5=
EXTT6=
EXTT7=
EXTT8=
EXTT9=
EXTT10=
EXTT11=
EXTT12=
EXTT13=
PLAYORDER=
